# xmcd
#
# Track frame offsets:
#	150
#	7317
#	19360
#	30820
#	42802
#	48097
#	55990
#	80025
#
# Disc length: 1249 seconds
#
# Revision: 1
# Processed by: cddbd v1.5.1PL0 Copyright (c) Steve Scherf et al.
# Submitted via: CDex 1.50Beta5
#
DISCID=5c04df08
DTITLE=ステップ - おとえほん ステップ9がつごう
DYEAR=1900
DGENRE=
TTITLE0=ようこそ!ハッピイーリズムランドへ
TTITLE1=アルペンランド
TTITLE2=ランド
TTITLE3=ランド
TTITLE4=おはなしランド どびらをあけよう
TTITLE5=おはなしランド とびらをあけよう
TTITLE6=おはなしランド ブレーメンのおんがくたい
TTITLE7=リズムランド
EXTD=
EXTT0=
EXTT1=
EXTT2=
EXTT3=
EXTT4=
EXTT5=
EXTT6=
EXTT7=
PLAYORDER=
